<?xml version="1.0" encoding="UTF-8"?>
<svg width="183px" height="29px" viewBox="0 0 183 29" version="1.1" xmlns="http://www.w3.org/2000/svg" xmlns:xlink="http://www.w3.org/1999/xlink">
    <!-- Generator: Sketch 64 (93537) - https://sketch.com -->
    <title>Group 23</title>
    <desc>Created with Sketch.</desc>
    <g id="Page-1" stroke="none" stroke-width="1" fill="none" fill-rule="evenodd">
        <g id="1.-The-Plumbing-Company-Landing-Page" transform="translate(-627.000000, -4229.000000)" fill-rule="nonzero">
            <g id="Group-24" transform="translate(-3.000000, 3886.000000)">
                <g id="Group-23" transform="translate(630.000000, 343.000000)">
                    <g id="star">
                        <path d="M29.5301614,10.6882983 L19.9911786,9.82283042 L16.2020509,1.21516759 C15.936745,0.612487997 15.063197,0.612487997 14.7979504,1.21516759 L11.0088227,9.82277245 L1.4698399,10.6882403 C0.80192325,10.7488213 0.531995087,11.5615344 1.03594,11.9945871 L8.23315521,18.1798792 L6.12676738,27.322452 C5.97926987,27.9625817 6.68594239,28.4649113 7.26271754,28.1298317 L15.4998821,23.3449754 L23.7371059,28.1298317 C24.3138218,28.4649113 25.0206129,27.9625817 24.8731154,27.322452 L22.7667868,18.1799372 L29.964002,11.9946451 C30.4680062,11.5615923 30.1981373,10.7488793 29.5301614,10.6882983 Z" id="Path" fill="#FFDC64"></path>
                        <path d="M16.6697094,1.21516759 C16.396361,0.612487997 15.4963321,0.612487997 15.2230447,1.21516759 L11.3190527,9.82277245 L1.49090341,10.6882403 C0.802739407,10.7488213 0.52462859,11.5615344 1.04385019,11.9945871 L8.45924315,18.1798792 L6.28900188,27.322452 C6.13703309,27.9625817 6.86512782,28.4649113 7.45938744,28.1298317 L9.35359381,27.0618667 C9.61576896,16.8150383 14.6300673,9.59917345 18.6,5.47120088 L16.6697094,1.21516759 Z" id="Path" fill="#FFC850"></path>
                        <path d="M30.9374185,10.8584455 C30.7822752,10.3880035 30.3755695,10.0673264 29.8757778,10.0216264 L20.3893108,9.15434056 L18.508865,4.84993144 C18.4095369,4.62268559 18.1422783,4.51766503 17.9116845,4.61563643 C17.6811512,4.71348835 17.5747326,4.9770553 17.6740001,5.20424141 L19.6612281,9.75298163 C19.7270428,9.90358278 19.8710958,10.0067514 20.0367234,10.0218653 L29.7919034,10.9137037 C29.9854689,10.9313864 30.0529199,11.0745202 30.0729794,11.1352147 C30.0929784,11.1959091 30.1237646,11.3507517 29.9777118,11.4772185 L22.6173139,17.8510941 C22.4922902,17.9593405 22.4373235,18.1261906 22.4739276,18.2861707 L24.6280559,27.707136 C24.6707809,27.894118 24.5535749,28.0015878 24.5010929,28.0391037 C24.448732,28.0766196 24.3089819,28.1535032 24.1416574,28.0554721 L15.7176795,23.1248227 C15.5747174,23.0411885 15.396545,23.0411885 15.2536435,23.1248227 L6.82966566,28.0554721 C6.66240179,28.153563 6.52265162,28.0766196 6.47023016,28.0391037 C6.41780869,28.0015878 6.30054218,27.894118 6.34326719,27.7071957 L7.45520827,22.8441107 C7.51041746,22.6027068 7.35660743,22.3629158 7.11177192,22.3085537 C6.86651219,22.2541915 6.62367657,22.4057485 6.56846737,22.6470926 L5.4565263,27.5102374 C5.34622911,27.9928063 5.52991635,28.4732245 5.93589483,28.7640323 C6.34187332,29.0547206 6.86220939,29.0785563 7.29358047,28.8259813 L15.48551,24.0311178 L23.6774396,28.8259813 C23.8762169,28.9422925 24.0937811,29 24.3103151,29 C24.563938,29 24.8161671,28.9208463 25.0351252,28.7640323 C25.4411643,28.4732245 25.6247909,27.992866 25.5144937,27.5101777 L23.4197562,18.3486574 L30.5775588,12.1505329 C30.9546297,11.8240014 31.0924406,11.3289471 30.9374185,10.8584455 Z" id="Path" fill="#000000"></path>
                        <path d="M7.06903919,20.8247493 C7.01356354,21.0648299 7.16811589,21.3033064 7.41413302,21.3573706 C7.44799082,21.364797 7.48172683,21.3684211 7.51497568,21.3684211 C7.72384666,21.3684211 7.9122568,21.2277948 7.96005963,21.0206874 L8.56718606,18.3925148 C8.60396684,18.2333522 8.54867388,18.0673574 8.42310771,17.9598231 L1.02730918,11.6210061 C0.880551437,11.4952326 0.911486264,11.3412388 0.931642618,11.2808771 C0.951738076,11.2205153 1.01945368,11.0781661 1.21401426,11.0605804 L11.0162135,10.1736308 C11.1826404,10.1585998 11.3273886,10.0559967 11.3935209,9.90622105 L15.2871682,1.08502648 C15.3644444,0.910001127 15.524112,0.891048959 15.5891482,0.891048959 C15.6542453,0.891048959 15.8139128,0.909941716 15.891189,1.08496707 L16.9487582,3.48084194 C17.0486265,3.70684209 17.3171749,3.81122754 17.5488207,3.71385261 C17.7804666,3.61653709 17.8873988,3.35441494 17.7876522,3.1284742 L16.730083,0.732539916 C16.5305899,0.280717851 16.0934833,0 15.5891482,0 C15.0849349,0 14.6477673,0.280717851 14.4482742,0.732599327 L10.6618027,9.31086156 L1.12967423,10.1732743 C0.627592243,10.2187239 0.218801903,10.5375837 0.0629098621,11.0055062 C-0.0929212833,11.4733693 0.0456155889,11.9657692 0.424506322,12.2905107 L7.61660998,18.4547183 L7.06903919,20.8247493 Z" id="Path" fill="#000000"></path>
                    </g>
                    <g id="star-copy" transform="translate(38.000000, 0.000000)">
                        <path d="M29.5301614,10.6882983 L19.9911786,9.82283042 L16.2020509,1.21516759 C15.936745,0.612487997 15.063197,0.612487997 14.7979504,1.21516759 L11.0088227,9.82277245 L1.4698399,10.6882403 C0.80192325,10.7488213 0.531995087,11.5615344 1.03594,11.9945871 L8.23315521,18.1798792 L6.12676738,27.322452 C5.97926987,27.9625817 6.68594239,28.4649113 7.26271754,28.1298317 L15.4998821,23.3449754 L23.7371059,28.1298317 C24.3138218,28.4649113 25.0206129,27.9625817 24.8731154,27.322452 L22.7667868,18.1799372 L29.964002,11.9946451 C30.4680062,11.5615923 30.1981373,10.7488793 29.5301614,10.6882983 Z" id="Path" fill="#FFDC64"></path>
                        <path d="M16.6697094,1.21516759 C16.396361,0.612487997 15.4963321,0.612487997 15.2230447,1.21516759 L11.3190527,9.82277245 L1.49090341,10.6882403 C0.802739407,10.7488213 0.52462859,11.5615344 1.04385019,11.9945871 L8.45924315,18.1798792 L6.28900188,27.322452 C6.13703309,27.9625817 6.86512782,28.4649113 7.45938744,28.1298317 L9.35359381,27.0618667 C9.61576896,16.8150383 14.6300673,9.59917345 18.6,5.47120088 L16.6697094,1.21516759 Z" id="Path" fill="#FFC850"></path>
                        <path d="M30.9374185,10.8584455 C30.7822752,10.3880035 30.3755695,10.0673264 29.8757778,10.0216264 L20.3893108,9.15434056 L18.508865,4.84993144 C18.4095369,4.62268559 18.1422783,4.51766503 17.9116845,4.61563643 C17.6811512,4.71348835 17.5747326,4.9770553 17.6740001,5.20424141 L19.6612281,9.75298163 C19.7270428,9.90358278 19.8710958,10.0067514 20.0367234,10.0218653 L29.7919034,10.9137037 C29.9854689,10.9313864 30.0529199,11.0745202 30.0729794,11.1352147 C30.0929784,11.1959091 30.1237646,11.3507517 29.9777118,11.4772185 L22.6173139,17.8510941 C22.4922902,17.9593405 22.4373235,18.1261906 22.4739276,18.2861707 L24.6280559,27.707136 C24.6707809,27.894118 24.5535749,28.0015878 24.5010929,28.0391037 C24.448732,28.0766196 24.3089819,28.1535032 24.1416574,28.0554721 L15.7176795,23.1248227 C15.5747174,23.0411885 15.396545,23.0411885 15.2536435,23.1248227 L6.82966566,28.0554721 C6.66240179,28.153563 6.52265162,28.0766196 6.47023016,28.0391037 C6.41780869,28.0015878 6.30054218,27.894118 6.34326719,27.7071957 L7.45520827,22.8441107 C7.51041746,22.6027068 7.35660743,22.3629158 7.11177192,22.3085537 C6.86651219,22.2541915 6.62367657,22.4057485 6.56846737,22.6470926 L5.4565263,27.5102374 C5.34622911,27.9928063 5.52991635,28.4732245 5.93589483,28.7640323 C6.34187332,29.0547206 6.86220939,29.0785563 7.29358047,28.8259813 L15.48551,24.0311178 L23.6774396,28.8259813 C23.8762169,28.9422925 24.0937811,29 24.3103151,29 C24.563938,29 24.8161671,28.9208463 25.0351252,28.7640323 C25.4411643,28.4732245 25.6247909,27.992866 25.5144937,27.5101777 L23.4197562,18.3486574 L30.5775588,12.1505329 C30.9546297,11.8240014 31.0924406,11.3289471 30.9374185,10.8584455 Z" id="Path" fill="#000000"></path>
                        <path d="M7.06903919,20.8247493 C7.01356354,21.0648299 7.16811589,21.3033064 7.41413302,21.3573706 C7.44799082,21.364797 7.48172683,21.3684211 7.51497568,21.3684211 C7.72384666,21.3684211 7.9122568,21.2277948 7.96005963,21.0206874 L8.56718606,18.3925148 C8.60396684,18.2333522 8.54867388,18.0673574 8.42310771,17.9598231 L1.02730918,11.6210061 C0.880551437,11.4952326 0.911486264,11.3412388 0.931642618,11.2808771 C0.951738076,11.2205153 1.01945368,11.0781661 1.21401426,11.0605804 L11.0162135,10.1736308 C11.1826404,10.1585998 11.3273886,10.0559967 11.3935209,9.90622105 L15.2871682,1.08502648 C15.3644444,0.910001127 15.524112,0.891048959 15.5891482,0.891048959 C15.6542453,0.891048959 15.8139128,0.909941716 15.891189,1.08496707 L16.9487582,3.48084194 C17.0486265,3.70684209 17.3171749,3.81122754 17.5488207,3.71385261 C17.7804666,3.61653709 17.8873988,3.35441494 17.7876522,3.1284742 L16.730083,0.732539916 C16.5305899,0.280717851 16.0934833,0 15.5891482,0 C15.0849349,0 14.6477673,0.280717851 14.4482742,0.732599327 L10.6618027,9.31086156 L1.12967423,10.1732743 C0.627592243,10.2187239 0.218801903,10.5375837 0.0629098621,11.0055062 C-0.0929212833,11.4733693 0.0456155889,11.9657692 0.424506322,12.2905107 L7.61660998,18.4547183 L7.06903919,20.8247493 Z" id="Path" fill="#000000"></path>
                    </g>
                    <g id="star-copy-2" transform="translate(76.000000, 0.000000)">
                        <path d="M29.5301614,10.6882983 L19.9911786,9.82283042 L16.2020509,1.21516759 C15.936745,0.612487997 15.063197,0.612487997 14.7979504,1.21516759 L11.0088227,9.82277245 L1.4698399,10.6882403 C0.80192325,10.7488213 0.531995087,11.5615344 1.03594,11.9945871 L8.23315521,18.1798792 L6.12676738,27.322452 C5.97926987,27.9625817 6.68594239,28.4649113 7.26271754,28.1298317 L15.4998821,23.3449754 L23.7371059,28.1298317 C24.3138218,28.4649113 25.0206129,27.9625817 24.8731154,27.322452 L22.7667868,18.1799372 L29.964002,11.9946451 C30.4680062,11.5615923 30.1981373,10.7488793 29.5301614,10.6882983 Z" id="Path" fill="#FFDC64"></path>
                        <path d="M16.6697094,1.21516759 C16.396361,0.612487997 15.4963321,0.612487997 15.2230447,1.21516759 L11.3190527,9.82277245 L1.49090341,10.6882403 C0.802739407,10.7488213 0.52462859,11.5615344 1.04385019,11.9945871 L8.45924315,18.1798792 L6.28900188,27.322452 C6.13703309,27.9625817 6.86512782,28.4649113 7.45938744,28.1298317 L9.35359381,27.0618667 C9.61576896,16.8150383 14.6300673,9.59917345 18.6,5.47120088 L16.6697094,1.21516759 Z" id="Path" fill="#FFC850"></path>
                        <path d="M30.9374185,10.8584455 C30.7822752,10.3880035 30.3755695,10.0673264 29.8757778,10.0216264 L20.3893108,9.15434056 L18.508865,4.84993144 C18.4095369,4.62268559 18.1422783,4.51766503 17.9116845,4.61563643 C17.6811512,4.71348835 17.5747326,4.9770553 17.6740001,5.20424141 L19.6612281,9.75298163 C19.7270428,9.90358278 19.8710958,10.0067514 20.0367234,10.0218653 L29.7919034,10.9137037 C29.9854689,10.9313864 30.0529199,11.0745202 30.0729794,11.1352147 C30.0929784,11.1959091 30.1237646,11.3507517 29.9777118,11.4772185 L22.6173139,17.8510941 C22.4922902,17.9593405 22.4373235,18.1261906 22.4739276,18.2861707 L24.6280559,27.707136 C24.6707809,27.894118 24.5535749,28.0015878 24.5010929,28.0391037 C24.448732,28.0766196 24.3089819,28.1535032 24.1416574,28.0554721 L15.7176795,23.1248227 C15.5747174,23.0411885 15.396545,23.0411885 15.2536435,23.1248227 L6.82966566,28.0554721 C6.66240179,28.153563 6.52265162,28.0766196 6.47023016,28.0391037 C6.41780869,28.0015878 6.30054218,27.894118 6.34326719,27.7071957 L7.45520827,22.8441107 C7.51041746,22.6027068 7.35660743,22.3629158 7.11177192,22.3085537 C6.86651219,22.2541915 6.62367657,22.4057485 6.56846737,22.6470926 L5.4565263,27.5102374 C5.34622911,27.9928063 5.52991635,28.4732245 5.93589483,28.7640323 C6.34187332,29.0547206 6.86220939,29.0785563 7.29358047,28.8259813 L15.48551,24.0311178 L23.6774396,28.8259813 C23.8762169,28.9422925 24.0937811,29 24.3103151,29 C24.563938,29 24.8161671,28.9208463 25.0351252,28.7640323 C25.4411643,28.4732245 25.6247909,27.992866 25.5144937,27.5101777 L23.4197562,18.3486574 L30.5775588,12.1505329 C30.9546297,11.8240014 31.0924406,11.3289471 30.9374185,10.8584455 Z" id="Path" fill="#000000"></path>
                        <path d="M7.06903919,20.8247493 C7.01356354,21.0648299 7.16811589,21.3033064 7.41413302,21.3573706 C7.44799082,21.364797 7.48172683,21.3684211 7.51497568,21.3684211 C7.72384666,21.3684211 7.9122568,21.2277948 7.96005963,21.0206874 L8.56718606,18.3925148 C8.60396684,18.2333522 8.54867388,18.0673574 8.42310771,17.9598231 L1.02730918,11.6210061 C0.880551437,11.4952326 0.911486264,11.3412388 0.931642618,11.2808771 C0.951738076,11.2205153 1.01945368,11.0781661 1.21401426,11.0605804 L11.0162135,10.1736308 C11.1826404,10.1585998 11.3273886,10.0559967 11.3935209,9.90622105 L15.2871682,1.08502648 C15.3644444,0.910001127 15.524112,0.891048959 15.5891482,0.891048959 C15.6542453,0.891048959 15.8139128,0.909941716 15.891189,1.08496707 L16.9487582,3.48084194 C17.0486265,3.70684209 17.3171749,3.81122754 17.5488207,3.71385261 C17.7804666,3.61653709 17.8873988,3.35441494 17.7876522,3.1284742 L16.730083,0.732539916 C16.5305899,0.280717851 16.0934833,0 15.5891482,0 C15.0849349,0 14.6477673,0.280717851 14.4482742,0.732599327 L10.6618027,9.31086156 L1.12967423,10.1732743 C0.627592243,10.2187239 0.218801903,10.5375837 0.0629098621,11.0055062 C-0.0929212833,11.4733693 0.0456155889,11.9657692 0.424506322,12.2905107 L7.61660998,18.4547183 L7.06903919,20.8247493 Z" id="Path" fill="#000000"></path>
                    </g>
                    <g id="star-copy-3" transform="translate(114.000000, 0.000000)">
                        <path d="M29.5301614,10.6882983 L19.9911786,9.82283042 L16.2020509,1.21516759 C15.936745,0.612487997 15.063197,0.612487997 14.7979504,1.21516759 L11.0088227,9.82277245 L1.4698399,10.6882403 C0.80192325,10.7488213 0.531995087,11.5615344 1.03594,11.9945871 L8.23315521,18.1798792 L6.12676738,27.322452 C5.97926987,27.9625817 6.68594239,28.4649113 7.26271754,28.1298317 L15.4998821,23.3449754 L23.7371059,28.1298317 C24.3138218,28.4649113 25.0206129,27.9625817 24.8731154,27.322452 L22.7667868,18.1799372 L29.964002,11.9946451 C30.4680062,11.5615923 30.1981373,10.7488793 29.5301614,10.6882983 Z" id="Path" fill="#FFDC64"></path>
                        <path d="M16.6697094,1.21516759 C16.396361,0.612487997 15.4963321,0.612487997 15.2230447,1.21516759 L11.3190527,9.82277245 L1.49090341,10.6882403 C0.802739407,10.7488213 0.52462859,11.5615344 1.04385019,11.9945871 L8.45924315,18.1798792 L6.28900188,27.322452 C6.13703309,27.9625817 6.86512782,28.4649113 7.45938744,28.1298317 L9.35359381,27.0618667 C9.61576896,16.8150383 14.6300673,9.59917345 18.6,5.47120088 L16.6697094,1.21516759 Z" id="Path" fill="#FFC850"></path>
                        <path d="M30.9374185,10.8584455 C30.7822752,10.3880035 30.3755695,10.0673264 29.8757778,10.0216264 L20.3893108,9.15434056 L18.508865,4.84993144 C18.4095369,4.62268559 18.1422783,4.51766503 17.9116845,4.61563643 C17.6811512,4.71348835 17.5747326,4.9770553 17.6740001,5.20424141 L19.6612281,9.75298163 C19.7270428,9.90358278 19.8710958,10.0067514 20.0367234,10.0218653 L29.7919034,10.9137037 C29.9854689,10.9313864 30.0529199,11.0745202 30.0729794,11.1352147 C30.0929784,11.1959091 30.1237646,11.3507517 29.9777118,11.4772185 L22.6173139,17.8510941 C22.4922902,17.9593405 22.4373235,18.1261906 22.4739276,18.2861707 L24.6280559,27.707136 C24.6707809,27.894118 24.5535749,28.0015878 24.5010929,28.0391037 C24.448732,28.0766196 24.3089819,28.1535032 24.1416574,28.0554721 L15.7176795,23.1248227 C15.5747174,23.0411885 15.396545,23.0411885 15.2536435,23.1248227 L6.82966566,28.0554721 C6.66240179,28.153563 6.52265162,28.0766196 6.47023016,28.0391037 C6.41780869,28.0015878 6.30054218,27.894118 6.34326719,27.7071957 L7.45520827,22.8441107 C7.51041746,22.6027068 7.35660743,22.3629158 7.11177192,22.3085537 C6.86651219,22.2541915 6.62367657,22.4057485 6.56846737,22.6470926 L5.4565263,27.5102374 C5.34622911,27.9928063 5.52991635,28.4732245 5.93589483,28.7640323 C6.34187332,29.0547206 6.86220939,29.0785563 7.29358047,28.8259813 L15.48551,24.0311178 L23.6774396,28.8259813 C23.8762169,28.9422925 24.0937811,29 24.3103151,29 C24.563938,29 24.8161671,28.9208463 25.0351252,28.7640323 C25.4411643,28.4732245 25.6247909,27.992866 25.5144937,27.5101777 L23.4197562,18.3486574 L30.5775588,12.1505329 C30.9546297,11.8240014 31.0924406,11.3289471 30.9374185,10.8584455 Z" id="Path" fill="#000000"></path>
                        <path d="M7.06903919,20.8247493 C7.01356354,21.0648299 7.16811589,21.3033064 7.41413302,21.3573706 C7.44799082,21.364797 7.48172683,21.3684211 7.51497568,21.3684211 C7.72384666,21.3684211 7.9122568,21.2277948 7.96005963,21.0206874 L8.56718606,18.3925148 C8.60396684,18.2333522 8.54867388,18.0673574 8.42310771,17.9598231 L1.02730918,11.6210061 C0.880551437,11.4952326 0.911486264,11.3412388 0.931642618,11.2808771 C0.951738076,11.2205153 1.01945368,11.0781661 1.21401426,11.0605804 L11.0162135,10.1736308 C11.1826404,10.1585998 11.3273886,10.0559967 11.3935209,9.90622105 L15.2871682,1.08502648 C15.3644444,0.910001127 15.524112,0.891048959 15.5891482,0.891048959 C15.6542453,0.891048959 15.8139128,0.909941716 15.891189,1.08496707 L16.9487582,3.48084194 C17.0486265,3.70684209 17.3171749,3.81122754 17.5488207,3.71385261 C17.7804666,3.61653709 17.8873988,3.35441494 17.7876522,3.1284742 L16.730083,0.732539916 C16.5305899,0.280717851 16.0934833,0 15.5891482,0 C15.0849349,0 14.6477673,0.280717851 14.4482742,0.732599327 L10.6618027,9.31086156 L1.12967423,10.1732743 C0.627592243,10.2187239 0.218801903,10.5375837 0.0629098621,11.0055062 C-0.0929212833,11.4733693 0.0456155889,11.9657692 0.424506322,12.2905107 L7.61660998,18.4547183 L7.06903919,20.8247493 Z" id="Path" fill="#000000"></path>
                    </g>
                    <g id="star-copy-4" transform="translate(152.000000, 0.000000)">
                        <path d="M29.5301614,10.6882983 L19.9911786,9.82283042 L16.2020509,1.21516759 C15.936745,0.612487997 15.063197,0.612487997 14.7979504,1.21516759 L11.0088227,9.82277245 L1.4698399,10.6882403 C0.80192325,10.7488213 0.531995087,11.5615344 1.03594,11.9945871 L8.23315521,18.1798792 L6.12676738,27.322452 C5.97926987,27.9625817 6.68594239,28.4649113 7.26271754,28.1298317 L15.4998821,23.3449754 L23.7371059,28.1298317 C24.3138218,28.4649113 25.0206129,27.9625817 24.8731154,27.322452 L22.7667868,18.1799372 L29.964002,11.9946451 C30.4680062,11.5615923 30.1981373,10.7488793 29.5301614,10.6882983 Z" id="Path" fill="#FFDC64"></path>
                        <path d="M16.6697094,1.21516759 C16.396361,0.612487997 15.4963321,0.612487997 15.2230447,1.21516759 L11.3190527,9.82277245 L1.49090341,10.6882403 C0.802739407,10.7488213 0.52462859,11.5615344 1.04385019,11.9945871 L8.45924315,18.1798792 L6.28900188,27.322452 C6.13703309,27.9625817 6.86512782,28.4649113 7.45938744,28.1298317 L9.35359381,27.0618667 C9.61576896,16.8150383 14.6300673,9.59917345 18.6,5.47120088 L16.6697094,1.21516759 Z" id="Path" fill="#FFC850"></path>
                        <path d="M30.9374185,10.8584455 C30.7822752,10.3880035 30.3755695,10.0673264 29.8757778,10.0216264 L20.3893108,9.15434056 L18.508865,4.84993144 C18.4095369,4.62268559 18.1422783,4.51766503 17.9116845,4.61563643 C17.6811512,4.71348835 17.5747326,4.9770553 17.6740001,5.20424141 L19.6612281,9.75298163 C19.7270428,9.90358278 19.8710958,10.0067514 20.0367234,10.0218653 L29.7919034,10.9137037 C29.9854689,10.9313864 30.0529199,11.0745202 30.0729794,11.1352147 C30.0929784,11.1959091 30.1237646,11.3507517 29.9777118,11.4772185 L22.6173139,17.8510941 C22.4922902,17.9593405 22.4373235,18.1261906 22.4739276,18.2861707 L24.6280559,27.707136 C24.6707809,27.894118 24.5535749,28.0015878 24.5010929,28.0391037 C24.448732,28.0766196 24.3089819,28.1535032 24.1416574,28.0554721 L15.7176795,23.1248227 C15.5747174,23.0411885 15.396545,23.0411885 15.2536435,23.1248227 L6.82966566,28.0554721 C6.66240179,28.153563 6.52265162,28.0766196 6.47023016,28.0391037 C6.41780869,28.0015878 6.30054218,27.894118 6.34326719,27.7071957 L7.45520827,22.8441107 C7.51041746,22.6027068 7.35660743,22.3629158 7.11177192,22.3085537 C6.86651219,22.2541915 6.62367657,22.4057485 6.56846737,22.6470926 L5.4565263,27.5102374 C5.34622911,27.9928063 5.52991635,28.4732245 5.93589483,28.7640323 C6.34187332,29.0547206 6.86220939,29.0785563 7.29358047,28.8259813 L15.48551,24.0311178 L23.6774396,28.8259813 C23.8762169,28.9422925 24.0937811,29 24.3103151,29 C24.563938,29 24.8161671,28.9208463 25.0351252,28.7640323 C25.4411643,28.4732245 25.6247909,27.992866 25.5144937,27.5101777 L23.4197562,18.3486574 L30.5775588,12.1505329 C30.9546297,11.8240014 31.0924406,11.3289471 30.9374185,10.8584455 Z" id="Path" fill="#000000"></path>
                        <path d="M7.06903919,20.8247493 C7.01356354,21.0648299 7.16811589,21.3033064 7.41413302,21.3573706 C7.44799082,21.364797 7.48172683,21.3684211 7.51497568,21.3684211 C7.72384666,21.3684211 7.9122568,21.2277948 7.96005963,21.0206874 L8.56718606,18.3925148 C8.60396684,18.2333522 8.54867388,18.0673574 8.42310771,17.9598231 L1.02730918,11.6210061 C0.880551437,11.4952326 0.911486264,11.3412388 0.931642618,11.2808771 C0.951738076,11.2205153 1.01945368,11.0781661 1.21401426,11.0605804 L11.0162135,10.1736308 C11.1826404,10.1585998 11.3273886,10.0559967 11.3935209,9.90622105 L15.2871682,1.08502648 C15.3644444,0.910001127 15.524112,0.891048959 15.5891482,0.891048959 C15.6542453,0.891048959 15.8139128,0.909941716 15.891189,1.08496707 L16.9487582,3.48084194 C17.0486265,3.70684209 17.3171749,3.81122754 17.5488207,3.71385261 C17.7804666,3.61653709 17.8873988,3.35441494 17.7876522,3.1284742 L16.730083,0.732539916 C16.5305899,0.280717851 16.0934833,0 15.5891482,0 C15.0849349,0 14.6477673,0.280717851 14.4482742,0.732599327 L10.6618027,9.31086156 L1.12967423,10.1732743 C0.627592243,10.2187239 0.218801903,10.5375837 0.0629098621,11.0055062 C-0.0929212833,11.4733693 0.0456155889,11.9657692 0.424506322,12.2905107 L7.61660998,18.4547183 L7.06903919,20.8247493 Z" id="Path" fill="#000000"></path>
                    </g>
                </g>
            </g>
        </g>
    </g>
</svg>